<svg xmlns="http://www.w3.org/2000/svg" xmlns:xlink="http://www.w3.org/1999/xlink"><symbol id="icon-button-next"><path d="M4.868 35.934l14.348-15.935a1.72 1.72 0 000-2.288L4.868 1.776" stroke="#14171C" stroke-width="3" stroke-miterlimit="10" stroke-linejoin="round"/></symbol><symbol id="icon-button-prev"><path d="M17.132 2.066L2.784 18.001a1.72 1.72 0 000 2.288l14.348 15.935" stroke="#14171C" stroke-width="3" stroke-miterlimit="10" stroke-linejoin="round"/></symbol><symbol id="icon-catalog" viewBox="0 0 34 34"><mask id="a" style="mask-type:alpha" maskUnits="userSpaceOnUse" x="0" y="0" width="34" height="34"><circle cx="17" cy="17" r="17" fill="#C4C4C4"/></mask><g mask="url(#a)"><path d="M38-.715H16.707v36.62H38V-.715z" fill="#FFDA00"/><path fill-rule="evenodd" clip-rule="evenodd" d="M15.704-.715H-4.552v36.48h21.259V-.715h-1.003z" fill="#0A0C06"/></g></symbol><symbol id="icon-mail" viewBox="0 0 15 13"><path d="M12.61 12.3H2.259a1.6 1.6 0 01-1.593-1.608V2.65a1.6 1.6 0 011.593-1.608H12.61a1.6 1.6 0 011.593 1.608v8.042A1.6 1.6 0 0112.61 12.3z" stroke="#14171C" stroke-width="1.5" stroke-miterlimit="10"/><path d="M.665 2.65l6.77 4.02 6.769-4.02" stroke="#14171C" stroke-width="1.5" stroke-miterlimit="10"/></symbol><symbol id="icon-modal-close" viewBox="0 0 23 23"><path d="M20.849 0L0 20.849 2.151 23 23 2.151 20.849 0z"/><path d="M2.151 0L0 2.151 20.849 23 23 20.849 2.151 0z"/></symbol><symbol id="icon-phone" viewBox="0 0 17 17"><path d="M15.606 12.725l-3.381-2.356c-.477-.33-1.174-.21-1.505.253l-.878 1.263a.93.93 0 00-.124.254 1.098 1.098 0 01-.615.166c-.49 0-1.33-.253-2.525-1.47C4.594 8.818 4.58 7.93 4.847 7.25a.81.81 0 00.178-.109l1.212-.933c.462-.355.555-1.046.203-1.542L4.015 1.304c-.484-.673-1.077-.749-1.7-.206-.377.333-1.002 1.126-1.258 1.6-.146.26-.21.532-.185.803-1.142 4.545 2.236 8.297 3.303 9.347 2.915 2.87 5.621 3.455 7.381 3.455 1 0 1.72-.18 2.04-.318.25.007.502-.058.744-.206.462-.279 1.22-.937 1.529-1.332.256-.322.359-.622.313-.919-.043-.3-.231-.565-.576-.803zm-.292 1.273c-.256.326-.953.938-1.34 1.17a.637.637 0 01-.405.108.36.36 0 00-.203.04c-.15.08-.8.3-1.813.3-1.629 0-4.143-.568-6.887-3.271C3.67 11.36.49 7.822 1.576 3.62a.398.398 0 00.007-.144.675.675 0 01.092-.424c.217-.398.793-1.132 1.103-1.404.131-.116.252-.18.334-.18.114 0 .245.148.334.27L5.867 5.1c.125.178.1.416-.057.536l-1.216.937a.223.223 0 01-.092.04.35.35 0 00-.238.199c-.516 1.14-.391 2.298 1.817 4.541 1.095 1.115 2.115 1.683 3.025 1.683.612 0 .992-.257 1.167-.409a.355.355 0 00.117-.22.242.242 0 01.035-.098l.875-1.263c.11-.156.356-.192.523-.076l3.381 2.352c.167.116.263.224.274.315.014.083-.043.213-.164.361z" stroke="#100F0F" stroke-width=".5"/></symbol><symbol id="icon-sub-menu"><path d="M.652 1.549l5.032 4.565a.54.54 0 00.723 0L11.44 1.55" stroke="gray" stroke-width="2" stroke-miterlimit="10" stroke-linejoin="round"/></symbol><symbol id="personal-data-icon"><path d="M1 5l4 4 5.5-7.5" stroke="#100F0F" stroke-width="1.5" stroke-linecap="round" stroke-linejoin="round"/></symbol><symbol id="toggle-open-menu"><path stroke="#000" stroke-width="1.5" stroke-linecap="round" d="M.815 1.347h17.371M.815 6.379h17.371M.815 11.411h17.371"/></symbol></svg>